<svg xmlns="http://www.w3.org/2000/svg" viewBox="0 0 2209 320" width="2209" height="320">
<g fill="#ffffff" fill-rule="evenodd">
  <path d="M 2208 0 L 1955 0 L 1925 22 L 1912 77 L 1997 79 L 1941 319 L 2043 319 L 2098 80 L 2190 77 Z"/>
  <path d="M 1643 0 L 1629 73 L 1688 80 L 1623 93 L 1569 319 L 1823 319 L 1841 241 L 1693 241 L 1701 194 L 1797 193 L 1827 126 L 1720 124 L 1728 79 L 1880 77 L 1899 0 Z"/>
  <path d="M 1329 0 L 1254 319 L 1357 319 L 1388 194 L 1436 319 L 1541 319 L 1546 276 L 1523 259 L 1482 164 L 1617 0 L 1511 0 L 1407 129 L 1434 0 Z"/>
  <path d="M 1044 0 L 1007 34 L 998 75 L 1060 80 L 993 92 L 948 290 L 973 319 L 1192 319 L 1227 290 L 1247 201 L 1143 201 L 1133 240 L 1063 241 L 1099 80 L 1173 78 L 1164 121 L 1266 121 L 1288 27 L 1266 0 Z"/>
  <path d="M 741 0 L 689 47 L 624 319 L 727 319 L 751 228 L 824 230 L 804 319 L 906 319 L 966 45 L 929 0 Z M 791 77 L 852 77 L 854 79 L 842 136 L 836 154 L 771 153 L 788 80 Z"/>
  <path d="M 378 0 L 382 19 L 370 73 L 433 80 L 365 93 L 312 319 L 415 319 L 439 228 L 463 230 L 488 319 L 594 319 L 569 230 L 618 196 L 656 29 L 631 0 Z M 475 77 L 542 77 L 544 79 L 525 154 L 456 153 Z"/>
  <path d="M 63 0 L 66 21 L 54 73 L 121 80 L 52 93 L 0 319 L 251 319 L 284 289 L 309 184 L 293 156 L 318 133 L 343 30 L 318 0 Z M 128 196 L 130 194 L 201 194 L 202 198 L 192 238 L 189 241 L 120 240 L 119 236 Z M 160 78 L 226 77 L 228 83 L 218 122 L 216 124 L 151 124 L 150 119 Z"/>
</g>
</svg>